HIERARCHY
ROOT Hips
{
	OFFSET 0.000000 0.000000 0.000000
	CHANNELS 6 Xposition Yposition Zposition Zrotation Yrotation Xrotation 
	JOINT LHipJoint
	{
		OFFSET 0.000000 0.000000 0.000000
		CHANNELS 3 Zrotation Yrotation Xrotation
		JOINT LeftUpLeg
		{
			OFFSET 1.363060 -1.794630 0.839290
			CHANNELS 3 Zrotation Yrotation Xrotation
			JOINT LeftLeg
			{
				OFFSET 2.448110 -6.726130 0.000000
				CHANNELS 3 Zrotation Yrotation Xrotation
				JOINT LeftFoot
				{
					OFFSET 2.562200 -7.039590 0.000000
					CHANNELS 3 Zrotation Yrotation Xrotation
					JOINT LeftToeBase
					{
						OFFSET 0.157640 -0.433110 2.322550
						CHANNELS 3 Zrotation Yrotation Xrotation
						End Site
						{
							OFFSET 0.000000 0.000000 0.000000
						}
					}
				}
			}
		}
	}
	JOINT RHipJoint
	{
		OFFSET 0.000000 0.000000 0.000000
		CHANNELS 3 Zrotation Yrotation Xrotation
		JOINT RightUpLeg
		{
			OFFSET -1.305520 -1.794630 0.839290
			CHANNELS 3 Zrotation Yrotation Xrotation
			JOINT RightLeg
			{
				OFFSET -2.542530 -6.985550 0.000000
				CHANNELS 3 Zrotation Yrotation Xrotation
				JOINT RightFoot
				{
					OFFSET -2.568260 -7.056230 0.000000
					CHANNELS 3 Zrotation Yrotation Xrotation
					JOINT RightToeBase
					{
						OFFSET -0.164730 -0.452590 2.363150
						CHANNELS 3 Zrotation Yrotation Xrotation
						End Site
						{
							OFFSET 0.000000 0.000000 0.000000
						}
					}
				}
			}
		}
	}
	JOINT LowerBack
	{
		OFFSET 0.000000 0.000000 0.000000
		CHANNELS 3 Zrotation Yrotation Xrotation
		JOINT Spine
		{
			OFFSET 0.028270 2.035590 -0.193380
			CHANNELS 3 Zrotation Yrotation Xrotation
			JOINT Spine1
			{
				OFFSET 0.056720 2.048850 -0.042750
				CHANNELS 3 Zrotation Yrotation Xrotation
				JOINT Neck
				{
					OFFSET 0.000000 0.000000 0.000000
					CHANNELS 3 Zrotation Yrotation Xrotation
					JOINT Neck1
					{
						OFFSET -0.054170 1.746240 0.172020
						CHANNELS 3 Zrotation Yrotation Xrotation
						JOINT Head
						{
							OFFSET 0.104070 1.761360 -0.123970
							CHANNELS 3 Zrotation Yrotation Xrotation
							End Site
							{
								OFFSET 0.000000 0.000000 0.000000
							}
						}
					}
				}
				JOINT LeftShoulder
				{
					OFFSET 0.000000 0.000000 0.000000
					CHANNELS 3 Zrotation Yrotation Xrotation
					JOINT LeftArm
					{
						OFFSET 3.362410 1.200890 -0.311210
						CHANNELS 3 Zrotation Yrotation Xrotation
						JOINT LeftForeArm
						{
							OFFSET 4.983000 -0.000000 -0.000000
							CHANNELS 3 Zrotation Yrotation Xrotation
							JOINT LeftHand
							{
								OFFSET 3.483560 -0.000000 -0.000000
								CHANNELS 3 Zrotation Yrotation Xrotation
								JOINT LeftFingerBase
								{
									OFFSET 0.000000 0.000000 0.000000
									CHANNELS 3 Zrotation Yrotation Xrotation
									JOINT LeftHandIndex1
									{
										OFFSET 0.715260 -0.000000 -0.000000
										CHANNELS 3 Zrotation Yrotation Xrotation
										End Site
										{
											OFFSET 0.000000 0.000000 0.000000
										}
									}
								}
								JOINT LThumb
								{
									OFFSET 0.000000 0.000000 0.000000
									CHANNELS 3 Zrotation Yrotation Xrotation
									End Site
									{
										OFFSET 0.000000 0.000000 0.000000
									}
								}
							}
						}
					}
				}
				JOINT RightShoulder
				{
					OFFSET 0.000000 0.000000 0.000000
					CHANNELS 3 Zrotation Yrotation Xrotation
					JOINT RightArm
					{
						OFFSET -3.136600 1.374050 -0.404650
						CHANNELS 3 Zrotation Yrotation Xrotation
						JOINT RightForeArm
						{
							OFFSET -5.241900 -0.000000 -0.000000
							CHANNELS 3 Zrotation Yrotation Xrotation
							JOINT RightHand
							{
								OFFSET -3.444170 -0.000000 -0.000000
								CHANNELS 3 Zrotation Yrotation Xrotation
								JOINT RightFingerBase
								{
									OFFSET 0.000000 0.000000 0.000000
									CHANNELS 3 Zrotation Yrotation Xrotation
									JOINT RightHandIndex1
									{
										OFFSET -0.622530 -0.000000 -0.000000
										CHANNELS 3 Zrotation Yrotation Xrotation
										End Site
										{
											OFFSET 0.000000 0.000000 0.000000
										}
									}
								}
								JOINT RThumb
								{
									OFFSET 0.000000 0.000000 0.000000
									CHANNELS 3 Zrotation Yrotation Xrotation
									End Site
									{
										OFFSET 0.000000 0.000000 0.000000
									}
								}
							}
						}
					}
				}
			}
		}
	}
}
MOTION
Frames: 6
Frame Time: 0.008333
11.678198 25.704523 9.531607 16.776006 -49.283039 20.681771 10.315584 1.125849 -2.331567 -21.170681 -17.803312 -42.141141 4.584679 18.854543 50.566038 3.942997 15.396105 13.880964 6.693800 -15.068500 -47.706500 -15.625459 -3.047959 -0.064851 26.704164 22.401963 -41.972960 0.106377 -13.075809 28.257763 -1.917476 -12.680282 9.918506 -3.844400 11.950400 -35.556700 -6.099796 0.230296 -24.801751 1.876482 0.594656 -6.112738 7.169960 -0.276704 9.566943 -11.917096 0.302665 -1.520288 12.895551 -2.665035 17.038163 2.701500 -0.483200 3.090900 22.588348 -2.296605 -1.127580 -46.712670 20.165007 31.868438 130.843595 -52.934545 -96.723310 -2.550240 1.127739 -19.256238 22.458509 -27.548637 -12.511800 -7.125000 0.000000 0.000000 -3.665500 -1.503300 3.768000 -14.080594 1.316025 0.060900 92.648045 2.241537 59.950289 -54.929370 54.293586 -32.063853 -1.714535 2.362681 -11.218767 23.943408 -44.795184 -18.995400 7.125000 0.000000 0.000000 76.893100 -61.212600 -43.045800 
11.756166 25.705507 9.533684 17.978816 -53.189189 19.738570 10.253575 1.124149 -2.335408 -20.968223 -17.493965 -42.151402 4.503329 18.768670 50.253258 3.954317 15.190220 14.145429 6.667400 -15.045300 -47.605000 -15.664926 -3.082479 -0.115018 26.843100 21.948504 -42.030846 0.081633 -13.178582 28.593960 -1.919245 -13.306623 9.876037 -3.652600 11.683100 -34.620100 -6.155535 0.565012 -24.765758 1.801590 1.060782 -6.066169 7.260153 -0.054660 9.596775 -12.050732 0.351100 -1.494561 12.902358 -2.611308 16.997176 2.733300 -0.466000 3.071900 22.544774 -2.274611 -1.034689 -45.853709 19.294985 31.291108 130.372416 -53.155095 -96.350941 -2.563066 1.135586 -19.221324 22.644925 -27.713077 -12.686900 -7.125000 0.000000 0.000000 -3.577000 -1.723300 3.690000 -14.015528 1.285456 0.031410 92.245578 2.285184 59.248881 -51.917132 53.233019 -29.601668 -1.747796 2.409312 -10.590629 24.728285 -44.553207 -19.602000 7.125000 0.000000 0.000000 77.131800 -60.888000 -42.747600 
11.843867 25.699930 9.521000 19.651168 -56.811305 18.294146 10.193614 1.140026 -2.328025 -20.867332 -17.309249 -42.393742 4.480516 18.770826 50.175960 3.948770 15.121200 14.133244 6.417700 -14.821300 -46.636100 -15.686695 -3.086880 -0.192223 26.694296 21.398502 -42.048890 0.094178 -13.262692 28.889030 -1.870850 -14.799201 9.368645 -3.027600 10.739600 -31.406600 -6.472187 0.543199 -24.405461 1.760944 1.167158 -5.984264 7.373398 -0.026116 9.676698 -12.125937 0.445138 -1.664421 12.796262 -2.417034 16.985910 2.718000 -0.371400 3.100800 22.515232 -2.251085 -0.998515 -45.110229 19.026797 30.407485 130.211133 -53.251961 -96.190496 -2.558772 1.155622 -18.831500 22.774816 -27.666145 -12.745100 -7.125000 0.000000 0.000000 -3.493700 -1.707700 3.602900 -13.948584 1.315237 0.021659 92.071946 2.912121 58.970467 -48.851804 52.038098 -27.106636 -1.794325 2.500330 -9.666150 26.089210 -44.867564 -20.867000 7.125000 0.000000 0.000000 78.691600 -60.620000 -43.794100 
11.937582 25.682652 9.527779 21.350297 -60.112141 16.816624 10.151295 1.156959 -2.319277 -20.657587 -17.468877 -42.696976 4.445797 18.793711 50.098112 3.952935 15.178993 14.046275 5.986800 -14.415500 -44.928500 -15.711614 -3.122560 -0.304369 27.012150 20.243825 -42.135950 0.102145 -13.240461 28.957036 -1.926353 -15.504486 9.801137 -2.993800 10.685000 -31.224800 -6.351746 0.412003 -24.191496 1.721395 1.052943 -5.797505 7.086583 -0.138716 10.304426 -12.041430 0.497840 -2.247185 12.580291 -2.164081 17.027829 2.653500 -0.236800 3.208900 22.469083 -2.134354 -0.872241 -44.222216 18.079710 28.925492 129.379588 -53.660057 -95.524114 -2.545821 1.157909 -18.674966 22.834590 -27.567891 -12.735100 -7.125000 0.000000 0.000000 -3.447600 -1.612000 3.549600 -13.896255 1.293158 -0.001150 92.120036 4.213181 59.048152 -45.799208 50.755276 -24.670092 -1.719753 2.593156 -8.985823 24.928229 -45.322112 -20.041500 7.125000 0.000000 0.000000 78.713300 -61.170200 -44.708200 
12.032828 25.657392 9.543854 23.421294 -63.243405 14.879192 10.119440 1.170791 -2.309340 -20.566209 -17.752006 -42.811542 4.363094 18.770902 49.870930 3.963061 15.412637 13.832611 5.311700 -13.726400 -42.152400 -15.701861 -3.168466 -0.440510 27.304440 18.822352 -42.166515 0.080838 -13.220592 29.062016 -1.953606 -15.932034 10.086593 -2.859300 10.463700 -30.491800 -6.227742 0.824517 -23.841504 1.650519 1.561107 -5.653384 7.141840 0.100521 10.625443 -12.345706 0.306193 -2.665357 12.748392 -2.355550 16.964248 2.789900 -0.340200 3.294300 22.391232 -1.991823 -0.547240 -43.698761 15.457978 28.158464 128.513611 -53.984518 -94.891846 -2.565809 1.179816 -18.580066 22.783323 -28.126831 -12.932300 -7.125000 0.000000 0.000000 -3.557400 -2.198400 3.698300 -13.835647 1.146709 -0.098008 91.316163 4.584722 57.626086 -43.622942 49.715938 -23.017173 -1.702925 2.585612 -8.192248 24.658610 -44.018864 -19.455700 7.125000 0.000000 0.000000 76.452600 -60.727900 -41.854400 
12.123262 25.623820 9.558179 25.555123 -66.267893 12.911754 10.108441 1.180430 -2.310057 -20.317903 -17.835151 -43.110300 4.290561 18.743767 49.626740 3.965926 15.289603 13.885818 4.897100 -13.266900 -40.376100 -15.718721 -3.168693 -0.522220 27.402426 18.346803 -41.976946 0.114393 -13.151811 28.951893 -1.917975 -16.636102 9.845604 -2.965400 10.638800 -31.071200 -6.089724 0.997030 -23.444275 1.631904 1.734399 -5.590340 7.121275 0.199205 10.673534 -12.373162 0.290121 -2.713434 12.787549 -2.382729 16.914729 2.808900 -0.358600 3.290200 22.365483 -1.925332 -0.344003 -42.989658 13.833228 27.780962 128.346134 -54.016617 -94.786893 -2.583919 1.131016 -19.061177 23.020768 -27.877031 -12.972300 -7.125000 0.000000 0.000000 -3.367800 -1.970000 3.487500 -13.776234 1.067588 -0.147705 90.588501 4.765291 56.779475 -41.865779 48.812412 -21.668044 -1.700591 2.669178 -7.565271 24.910836 -44.444944 -19.815100 7.125000 0.000000 0.000000 77.401200 -60.844400 -42.930400 
